<?xml version="1.0" ?><!DOCTYPE svg  PUBLIC '-//W3C//DTD SVG 1.0//EN'  'http://www.w3.org/TR/2001/REC-SVG-20010904/DTD/svg10.dtd'><svg enable-background="new 0 0 64 64" height="64px" id="Layer_1" version="1.0" viewBox="0 0 64 64" width="64px" xml:space="preserve" xmlns="http://www.w3.org/2000/svg" xmlns:xlink="http://www.w3.org/1999/xlink"><g><g><path d="M64,1c0-0.553-0.447-1-1-1H1C0.447,0,0,0.447,0,1v31h64V1z" fill="#41D9F2"/><path d="M64,63V32H0v31c0,0.553,0.447,1,1,1h62C63.553,64,64,63.553,64,63z" fill="#3CCDEB"/></g><path d="M9.102,49.121c0,0,8.373,1.531,13.957-4.348c0,0-6.551-0.382-8.461-6.644c0,0,2.031,0.38,4.066-0.126   c0,0-7.04-2.115-7.415-10.161c0,0,2.093,1.219,3.742,1.088c0,0-6.472-4.981-2.537-13.157c0,0,6.681,10.35,19.626,10.222   c0,0-1.271-7.155,4.568-10.477c5.835-3.322,10.914,0,12.311,1.533c0,0,3.554-0.638,5.832-2.173c0,0-0.374,2.94-3.42,4.983   c0,0,2.793,0.254,5.203-0.891c0,0-1.649,3.319-4.946,4.728c0,0,3.844,18.363-12.603,26.377C23.02,57.869,9.61,49.629,9.102,49.121z   " fill="#F6F6F6"/></g><g><path d="M51.628,23.699c3.297-1.408,4.946-4.728,4.946-4.728c-2.41,1.145-5.203,0.891-5.203,0.891   c3.046-2.043,3.42-4.983,3.42-4.983c-2.278,1.535-5.832,2.173-5.832,2.173c-1.396-1.533-6.476-4.855-12.311-1.533   c-5.839,3.321-4.568,10.477-4.568,10.477c-12.945,0.128-19.626-10.222-19.626-10.222c-3.936,8.176,2.537,13.157,2.537,13.157   c-1.648,0.131-3.742-1.088-3.742-1.088c0.079,1.698,0.465,3.118,1.01,4.324H51.77C52.394,27.383,51.628,23.699,51.628,23.699z" fill="#F6F6F6"/><path d="M12.259,32.167c2.034,4.507,6.405,5.837,6.405,5.837c-2.036,0.506-4.066,0.126-4.066,0.126   c1.91,6.262,8.461,6.644,8.461,6.644c-5.584,5.879-13.957,4.348-13.957,4.348c0.508,0.508,13.918,8.748,29.923,0.955   C48.109,45.65,50.999,38.07,51.77,32.167H12.259z" fill="#E1E1E1"/></g></svg>