<svg viewBox="0 0 75 75" version="1.1" xmlns="http://www.w3.org/2000/svg" xmlns:xlink="http://www.w3.org/1999/xlink">
    <!-- Generator: Sketch 50.2 (55047) - http://www.bohemiancoding.com/sketch -->
    <title>kvCORE IconAsset 338</title>
    <desc>Created with Sketch.</desc>
    <defs></defs>
    <g id="Page-1" stroke="none" stroke-width="1" fill="none" fill-rule="evenodd">
        <g id="kvCORE-IconAsset-338" fill-rule="nonzero">
            <path d="M32.2928571,25.9428571 C33.15,24.5142857 36.2785714,22.0428571 33.9928571,20.6214286 C30.0428571,15.2857143 26.2928571,23.15 23.1,25.4785714 C24.2071429,21.25 25.1357143,16.9857143 26.1428571,12.7357143 C24.6214286,11.4285714 23.05,10.2285714 21.4285714,9.03571429 L18.5,12.5428571 C18.5,18.8928571 16.6142857,24.9714286 15.7428571,31.2 C16.1357143,36.3928571 15.6785714,44.4714286 22.8857143,44.5071429 C22.9357143,42.9857143 23.0357143,39.9642857 23.0857143,38.4428571 C30.2285714,40.5857143 39.1,44.8071429 45.7285714,39.3357143 C38.6571429,36.4785714 30.5714286,37.1928571 24.2071429,32.3428571 C27,30.3571429 29.9714286,28.5571429 32.2571429,25.9142857" id="Shape" fill="#FFFFFF"></path>
            <path d="M59.2142857,17.6214286 C53.9857143,22.5142857 49.75,28.3357143 44.6142857,33.3357143 C43.8571429,28.8714286 44.4714286,22.9428571 39.3571429,20.85 L35.7857143,23.1 C37.4285714,30.5928571 37.9,41.0714286 46.3357143,44.1928571 C51.5285714,37.8571429 56.7428571,31.4285714 60.7142857,24.2357143 C62.2571429,21.9 60.0428571,19.7 59.1857143,17.6214286" id="Shape" fill="#FFFFFF"></path>
            <path d="M13.4214286,52.5285714 C13.4214286,48.9571429 16.1714286,46.5285714 19.7142857,46.5285714 C22.036499,46.3939871 24.1881719,47.7481066 25.0714286,49.9 L22.05,51.3285714 C21.710384,50.3293061 20.776776,49.6534427 19.7214286,49.6428571 C18.173758,49.7196431 16.9583432,50.9968543 16.9583432,52.5464286 C16.9583432,54.0960028 18.173758,55.373214 19.7214286,55.45 C20.776776,55.4394145 21.710384,54.763551 22.05,53.7642857 L25.0714286,55.1571429 C24.1796019,57.3044178 22.0367187,58.6615771 19.7142857,58.55 C16.1428571,58.55 13.4214286,56.1142857 13.4214286,52.55" id="Shape" fill="#FFFFFF"></path>
            <path d="M31.5,49.6214286 C30.3143752,49.5718634 29.2176348,50.2478793 28.729158,51.3293381 C28.2406811,52.4107969 28.4585314,53.6805915 29.2795423,54.5373901 C30.1005533,55.3941887 31.3599037,55.6659857 32.4612078,55.2240671 C33.562512,54.7821485 34.2846787,53.7152314 34.2857143,52.5285714 C34.3316124,51.7655904 34.057054,51.0180646 33.5282184,50.4661772 C32.9993828,49.9142898 32.2642442,49.6081062 31.5,49.6214286 M31.5,46.5285714 C35.0714286,46.5285714 37.8428571,48.9642857 37.8428571,52.5285714 C37.8428571,56.0928571 35.0785714,58.5285714 31.5,58.5285714 C27.9214286,58.5285714 25.1571429,56.0928571 25.1571429,52.5285714 C25.1571429,48.9642857 27.9214286,46.5285714 31.5,46.5285714" id="Shape" fill="#FFFFFF"></path>
            <path d="M44.55,49.6357143 L42.4071429,49.6357143 L42.4071429,51.6714286 L44.55,51.6714286 C44.9340016,51.7036249 45.3034388,51.5169694 45.5053424,51.1887487 C45.7072459,50.860528 45.7072459,50.4466148 45.5053424,50.1183941 C45.3034388,49.7901734 44.9340016,49.603518 44.55,49.6357143 Z M43.6785714,54.5928571 L42.4142857,54.5928571 L42.4142857,58.3142857 L38.9,58.3142857 L38.9,46.7214286 L45.0857143,46.7214286 C47.8,46.7214286 49.2571429,48.5285714 49.2571429,50.7 C49.3159044,52.18815 48.4851288,53.5690337 47.1428571,54.2142857 L49.2857143,58.3142857 L45.2857143,58.3142857 L43.6785714,54.5928571 Z" id="Shape" fill="#FFFFFF"></path>
            <polygon id="Shape" fill="#FFFFFF" points="50.5071429 46.7214286 59.3 46.7214286 59.3 49.6428571 54.0142857 49.6428571 54.0142857 50.9928571 59.1785714 50.9928571 59.1785714 53.9142857 54.0142857 53.9142857 54.0142857 55.3928571 59.3 55.3928571 59.3 58.3142857 50.5071429 58.3142857"></polygon>
            <path d="M16.75,61.2285714 L15.6357143,61.2285714 L15.6357143,62.2428571 L16.7428571,62.2428571 C17.0229444,62.2428571 17.25,62.0158016 17.25,61.7357143 C17.25,61.455627 17.0229444,61.2285714 16.7428571,61.2285714 L16.75,61.2285714 Z M13.8857143,59.8 L16.9714286,59.8 C17.5190321,59.7546881 18.0598341,59.9459888 18.4571449,60.3255503 C18.8544556,60.7051118 19.0702554,61.2366127 19.05,61.7857143 C19.0646984,62.3295523 18.8455658,62.8536021 18.4481176,63.2251001 C18.0506694,63.5965981 17.5130383,63.7799013 16.9714286,63.7285714 L15.6357143,63.7285714 L15.6357143,65.5857143 L13.8857143,65.5857143 L13.8857143,59.8 Z" id="Shape" fill="#FFFFFF"></path>
            <polygon id="Shape" fill="#FFFFFF" points="19.5142857 59.7714286 21.2642857 59.7714286 21.2642857 64.0285714 23.4571429 64.0285714 23.4571429 65.5571429 19.5142857 65.5571429"></polygon>
            <path d="M26.2071429,63.3571429 L27.5214286,63.3571429 L26.8642857,61.3214286 L26.2071429,63.3571429 Z M27.9785714,64.7857143 L25.7571429,64.7857143 L25.5285714,65.5 L23.6285714,65.5 L25.7714286,59.7142857 L27.9714286,59.7142857 L30.1142857,65.5 L28.2,65.5 L27.9785714,64.7857143 Z" id="Shape" fill="#FFFFFF"></path>
            <polygon id="Shape" fill="#FFFFFF" points="31.0714286 61.3 29.5214286 61.3 29.5214286 59.7714286 34.3714286 59.7714286 34.3714286 61.3 32.8285714 61.3 32.8285714 65.5571429 31.0714286 65.5571429"></polygon>
            <polygon id="Shape" fill="#FFFFFF" points="34.8071429 59.7714286 39.1928571 59.7714286 39.1928571 61.2285714 36.5571429 61.2285714 36.5571429 61.9071429 39.1357143 61.9071429 39.1357143 63.3642857 36.5571429 63.3642857 36.5571429 65.5571429 34.8071429 65.5571429"></polygon>
            <path d="M42.6714286,61.2214286 C42.0900429,61.2039792 41.556126,61.5407585 41.321444,62.0729597 C41.086762,62.605161 41.1981782,63.2265095 41.6031549,63.6440112 C42.0081316,64.0615129 42.6257993,64.1917974 43.1648998,63.9734296 C43.7040003,63.7550619 44.0568811,63.2316474 44.0571429,62.65 C44.0728478,62.2739847 43.9333408,61.9080377 43.6713089,61.6379018 C43.409277,61.3677658 43.0477477,61.2171805 42.6714286,61.2214286 M42.6714286,59.6785714 C44.3048142,59.7681538 45.5653263,61.1497729 45.5051084,62.7845045 C45.4448905,64.4192361 44.0861443,65.7043707 42.4505946,65.6735367 C40.8150449,65.6427027 39.5057027,64.3072682 39.5071429,62.6714286 C39.5015748,61.845729 39.8390172,61.0547683 40.4389121,60.4873734 C41.0388069,59.9199786 41.847318,59.627069 42.6714286,59.6785714" id="Shape" fill="#FFFFFF"></path>
            <path d="M49.2857143,61.2285714 L48.2071429,61.2285714 L48.2071429,62.2428571 L49.2857143,62.2428571 C49.4872106,62.2767944 49.6896847,62.1882244 49.8015313,62.017219 C49.9133778,61.8462136 49.9133778,61.6252149 49.8015313,61.4542095 C49.6896847,61.2832041 49.4872106,61.1946342 49.2857143,61.2285714 Z M48.85,63.7 L48.2142857,63.7 L48.2142857,65.5571429 L46.4285714,65.5571429 L46.4285714,59.7714286 L49.5142857,59.7714286 C50.0613182,59.7284571 50.6007555,59.92054 50.9975187,60.2995783 C51.3942818,60.6786167 51.6108006,61.2087187 51.5928571,61.7571429 C51.6228613,62.4956234 51.2137775,63.1820995 50.55,63.5071429 L51.6,65.5571429 L49.6357143,65.5571429 L48.85,63.7 Z" id="Shape" fill="#FFFFFF"></path>
            <polygon id="Shape" fill="#FFFFFF" points="57.4428571 61.9071429 56.15 65.5571429 55.3642857 65.5571429 54.0785714 61.9071429 54.0785714 65.5571429 52.3214286 65.5571429 52.3214286 59.7714286 54.7428571 59.7714286 55.7571429 62.7214286 56.7714286 59.7714286 59.1928571 59.7714286 59.1928571 65.5571429 57.4428571 65.5571429"></polygon>
        </g>
    </g>
</svg>