<?xml version="1.0" encoding="utf-8"?>
<!-- Generator: Adobe Illustrator 21.0.1, SVG Export Plug-In . SVG Version: 6.00 Build 0)  -->
<!DOCTYPE svg PUBLIC "-//W3C//DTD SVG 1.1//EN" "http://www.w3.org/Graphics/SVG/1.1/DTD/svg11.dtd">
<svg version="1.1" id="Capa_1" xmlns="http://www.w3.org/2000/svg" xmlns:xlink="http://www.w3.org/1999/xlink" x="0px" y="0px"
	 viewBox="0 0 512 512" style="enable-background:new 0 0 512 512;" xml:space="preserve">
<style type="text/css">
	.st0{fill:#8E8E92;}
</style>
<g>
	<g>
		<path class="st0" d="M504.5,280.6h-32.6V109.7c0-11.4-6.5-21.1-17-25.4s-22-2.1-30,6l-22.6,22.6c-8.8-4.4-19.8-2.9-27.1,4.4
			l-6.3,6.3l-3.4-3.4c-2.9-2.9-7.7-2.9-10.6,0s-2.9,7.7,0,10.6l40.1,40.1c1.5,1.5,3.4,2.2,5.3,2.2s3.8-0.7,5.3-2.2
			c2.9-2.9,2.9-7.7,0-10.6l-3.4-3.4l6.3-6.3c7.3-7.3,8.8-18.3,4.4-27.1l22.6-22.6c3.7-3.7,8.8-4.7,13.7-2.7c4.8,2,7.7,6.3,7.7,11.6
			v170.9h-8.5c-4.1,0-7.5,3.4-7.5,7.5s3.4,7.5,7.5,7.5h30.7l-20.3,91.2c-3.3,15-13.6,27.5-27.4,33.7c-3.5-7-10.7-11.7-18.8-11.7
			c-7.1,0-13.6,3.5-17.5,9.4c-1.4,2.1-2.3,4.3-2.9,6.6H159.8c-4.1,0-7.5,3.4-7.5,7.5s3.4,7.5,7.5,7.5h234.4l15.2,35.5
			c1.2,2.8,3.9,4.5,6.9,4.5h16c2.2,0,4.2-0.9,5.7-2.6c1.4-1.6,2.1-3.8,1.8-6l-5.1-35.9c19.6-7.7,34.2-24.7,38.8-45.4l21-94.5h10
			c4.1,0,7.5-3.4,7.5-7.5C512,283.9,508.6,280.6,504.5,280.6z M397.9,139.9l-6.3,6.3l-12.1-12.1l6.3-6.3c3.3-3.3,8.7-3.3,12.1,0
			C401.2,131.1,401.2,136.5,397.9,139.9z M421.3,465l-14.1-32.8c-1.1-2.7,0-4.8,0.5-5.6c0.5-0.8,2.1-2.7,5-2.7s5.5,2.2,5.9,5.1
			l5.1,36H421.3L421.3,465z"/>
	</g>
</g>
<g>
	<g>
		<path class="st0" d="M416.3,280.6H7.5c-4.1,0-7.5,3.4-7.5,7.5s3.4,7.5,7.5,7.5h10l21,94.5c4.6,20.7,19.3,37.7,38.8,45.4l-5.1,35.9
			c-0.3,2.2,0.3,4.3,1.8,6s3.5,2.6,5.7,2.6h16c3,0,5.7-1.8,6.9-4.5l15.2-35.5h9.9c4.1,0,7.5-3.4,7.5-7.5s-3.4-7.5-7.5-7.5h-8.1
			c-0.6-2.3-1.5-4.6-2.9-6.6c-3.9-5.9-10.4-9.4-17.5-9.4c-8.1,0-15.3,4.7-18.8,11.7C66.6,414.4,56.3,402,53,387l-20.3-91.2h383.4
			c4.1,0,7.5-3.4,7.5-7.5C423.8,283.9,420.5,280.6,416.3,280.6z M93.4,428.9c0.4-2.9,2.9-5.1,5.9-5.1c2.9,0,4.4,1.9,5,2.7
			s1.6,3,0.5,5.6L90.7,465h-2.4L93.4,428.9z"/>
	</g>
</g>
</svg>
