<?xml version="1.0" encoding="utf-8"?>
<!-- Generator: Adobe Illustrator 21.0.1, SVG Export Plug-In . SVG Version: 6.00 Build 0)  -->
<!DOCTYPE svg PUBLIC "-//W3C//DTD SVG 1.1//EN" "http://www.w3.org/Graphics/SVG/1.1/DTD/svg11.dtd">
<svg version="1.1" id="Capa_1" xmlns="http://www.w3.org/2000/svg" xmlns:xlink="http://www.w3.org/1999/xlink" x="0px" y="0px"
	 viewBox="0 0 512 512" style="enable-background:new 0 0 512 512;" xml:space="preserve">
<style type="text/css">
	.st0{fill:#8E8E92;}
</style>
<g>
	<g>
		<path class="st0" d="M496.5,256.5H496V232c0-10.4-6.7-19.2-16-22.3v-106c0-4.1-3.4-7.5-7.5-7.5H39.6c-4.1,0-7.5,3.4-7.5,7.5v106
			c-9.3,3.1-16,11.9-16,22.3v24.6h-0.5C7,256.5,0,263.5,0,272v64.1c0,8.6,7,15.5,15.5,15.5H16v56.6c0,4.1,3.4,7.5,7.5,7.5h16
			c3.4,0,6.4-2.3,7.3-5.7l14.6-58.4h389.1l14.6,58.4c0.8,3.3,3.8,5.7,7.3,5.7h16c4.1,0,7.5-3.4,7.5-7.5v-56.6h0.5
			c8.6,0,15.5-7,15.5-15.5V272C512,263.5,505,256.5,496.5,256.5z M33.7,400.8H31v-49.1h15L33.7,400.8z M481,400.8L481,400.8h-2.7
			L466,351.7h15V400.8z M496.5,336.7h-481c-0.3,0-0.5-0.2-0.5-0.5V272c0-0.3,0.2-0.5,0.5-0.5h424.9c4.1,0,7.5-3.4,7.5-7.5
			s-3.4-7.5-7.5-7.5H31V232c0-4.7,3.8-8.5,8.5-8.5h16c4.1,0,7.5-3.4,7.5-7.5s-3.4-7.5-7.5-7.5h-8.5v-97.2h417.9v97.2h-41.1v-40.6
			c0-13-10.6-23.5-23.5-23.5H288.1c-13,0-23.5,10.6-23.5,23.5v40.6h-17.1v-40.6c0-13-10.6-23.5-23.5-23.5H111.7
			c-13,0-23.5,10.6-23.5,23.5v40.6h-0.5c-4.1,0-7.5,3.4-7.5,7.5s3.4,7.5,7.5,7.5h384.8c4.7,0,8.5,3.8,8.5,8.5v24.6h-8.5
			c-4.1,0-7.5,3.4-7.5,7.5s3.4,7.5,7.5,7.5h24c0.3,0,0.5,0.2,0.5,0.5v64.1h0C497,336.4,496.8,336.7,496.5,336.7z M408.8,167.8v40.6
			H279.5v-40.6c0-4.7,3.8-8.5,8.5-8.5h112.2C405,159.3,408.8,163.1,408.8,167.8z M232.5,167.8v40.6H103.2v-40.6
			c0-4.7,3.8-8.5,8.5-8.5h112.2C228.6,159.3,232.5,163.1,232.5,167.8z"/>
	</g>
</g>
</svg>
