<?xml version="1.0" encoding="utf-8"?>
<!-- Generator: Adobe Illustrator 21.0.1, SVG Export Plug-In . SVG Version: 6.00 Build 0)  -->
<!DOCTYPE svg PUBLIC "-//W3C//DTD SVG 1.1//EN" "http://www.w3.org/Graphics/SVG/1.1/DTD/svg11.dtd">
<svg version="1.1" id="Layer_1" xmlns="http://www.w3.org/2000/svg" xmlns:xlink="http://www.w3.org/1999/xlink" x="0px" y="0px"
	 viewBox="0 0 511 511" style="enable-background:new 0 0 511 511;" xml:space="preserve">
<style type="text/css">
	.st0{fill:#8E8E92;}
</style>
<path class="st0" d="M426,373.8c-18.6,0-33.7,15.1-33.7,33.7s15.1,33.7,33.7,33.7s33.7-15.1,33.7-33.7S444.6,373.8,426,373.8z
	 M426,426.2c-10.3,0-18.7-8.4-18.7-18.7c0-10.3,8.4-18.7,18.7-18.7c10.3,0,18.7,8.4,18.7,18.7C444.8,417.8,436.4,426.2,426,426.2z"
	/>
<path class="st0" d="M496.5,385.3H496c-1.3-4-2.9-7.9-4.8-11.6l0.3-0.3c2.7-2.7,4.2-6.4,4.2-10.3s-1.5-7.5-4.2-10.3L480.7,342
	c-5.7-5.7-14.9-5.7-20.5,0l-0.3,0.3c-3.7-1.9-7.6-3.5-11.6-4.8V337c0-8-6.5-14.5-14.5-14.5h-15.4c-4.1,0-7.8,1.7-10.5,4.5V207
	c0-9.5-7.7-17.2-17.2-17.2h-271c-9.5,0-17.2,7.7-17.2,17.2v235h-32c-0.6,0-1-0.5-1-1V189.1L255.2,85l185.6,104.2V305
	c0,4.1,3.3,7.5,7.5,7.5s7.5-3.4,7.5-7.5V197.5l16.3,9.1c2.7,1.5,5.7,2.3,8.6,2.3c6.2,0,12.2-3.2,15.5-8.9l11.8-20.3
	c2.4-4.2,3-9,1.8-13.6c-1.3-4.6-4.3-8.5-8.5-10.8L260.9,20.4c-3.5-2-7.9-2-11.4,0c0,0,0,0,0,0L9.1,155.3c-4.2,2.4-7.2,6.2-8.5,10.8
	c-1.3,4.6-0.6,9.5,1.8,13.6l11.8,20.3c4.8,8.4,15.7,11.3,24.1,6.6l16.3-9.1v243.5c0,8.8,7.2,16,16,16h258.5c4.1,0,7.5-3.3,7.5-7.5
	s-3.4-7.5-7.5-7.5H117.5V415h223.6v0.2c0,8,6.5,14.5,14.5,14.5h0.4c1.3,4,2.9,7.9,4.8,11.6l-0.3,0.3c-2.7,2.7-4.2,6.4-4.2,10.3
	s1.5,7.5,4.2,10.3l10.9,10.9c2.7,2.7,6.4,4.2,10.3,4.2s7.5-1.5,10.3-4.2l0.3-0.3c3.7,1.9,7.6,3.5,11.6,4.8v0.4
	c0,8,6.5,14.5,14.5,14.5h15.4c8,0,14.5-6.5,14.5-14.5v-0.4c4-1.3,7.9-2.9,11.6-4.8l0.3,0.3c5.7,5.7,14.9,5.7,20.5,0l10.9-10.9
	c2.7-2.7,4.2-6.4,4.2-10.3s-1.5-7.5-4.2-10.3l-0.3-0.3c1.9-3.7,3.5-7.6,4.8-11.6h0.4c8,0,14.5-6.5,14.5-14.5v-15.4
	C511,391.8,504.5,385.3,496.5,385.3z M31,193.6c-1.3,0.7-3.1,0.3-3.8-1.1l-11.8-20.3c-0.5-0.9-0.4-1.7-0.3-2.2
	c0.1-0.4,0.4-1.2,1.3-1.7l238.8-134l238.8,134c0.9,0.5,1.2,1.3,1.3,1.7c0.1,0.4,0.2,1.3-0.3,2.2l-11.8,20.3
	c-0.8,1.3-2.5,1.8-3.8,1.1L260.9,71c-0.2-0.1-0.4-0.2-0.7-0.4c-0.1,0-0.2-0.1-0.3-0.1c-0.1,0-0.1-0.1-0.2-0.1
	c-0.1-0.1-0.2-0.1-0.4-0.1c0,0,0,0,0,0c-3-1.1-6.3-1-9.2,0.4c-0.2,0.1-0.4,0.2-0.7,0.4L31,193.6z M117.5,207c0-1.2,1-2.2,2.2-2.2
	h271c1.2,0,2.2,1,2.2,2.2v24.9H117.5V207z M117.5,246.8h275.4v27.1H117.5V246.8z M117.5,288.9h275.4v27.1H117.5V288.9z M117.5,330.9
	h275.4v11c-0.2,0.1-0.4,0.2-0.7,0.3l-0.3-0.3c-2.7-2.7-6.4-4.2-10.3-4.2c-3.9,0-7.5,1.5-10.3,4.2l-10.9,10.9
	c-1.5,1.5-2.6,3.2-3.3,5.1H117.5V330.9z M355.6,385.3c-8,0-14.5,6.5-14.5,14.5v0.2H117.5V373h242.6c0.1,0.1,0.3,0.3,0.4,0.4l0.3,0.3
	c-1.9,3.7-3.5,7.6-4.8,11.6H355.6z M496,414.8h-1.6c-5.7,0-10.7,3.8-12.3,9.2c-1.2,4-2.8,7.9-4.8,11.6c-2.7,5-1.8,11.2,2.2,15.2
	l1.1,1.1l-10.2,10.2l-1.1-1.1c-4-4-10.3-4.9-15.2-2.2c-3.7,2-7.6,3.6-11.6,4.8c-5.4,1.6-9.2,6.6-9.2,12.3v1.6h-14.5v-1.6
	c0-5.7-3.8-10.7-9.2-12.3c-4-1.2-7.9-2.8-11.6-4.8c-5-2.7-11.2-1.8-15.2,2.2l-1.1,1.1l-10.2-10.2l1.1-1.1c4-4,4.9-10.3,2.2-15.2
	c-2-3.7-3.6-7.6-4.8-11.6c-1.6-5.4-6.6-9.2-12.3-9.2H356v-14.5h1.6c5.7,0,10.7-3.8,12.3-9.2c1.2-4,2.8-7.9,4.8-11.6
	c2.7-5,1.8-11.2-2.2-15.2l-1.1-1.1l10.2-10.2l1.1,1.1c4,4,10.3,4.9,15.2,2.2c1.7-0.9,3.4-1.8,5.2-2.5c0.1,0,0.1,0,0.2-0.1
	c2-0.9,4.1-1.6,6.2-2.2c5.4-1.6,9.2-6.6,9.2-12.3v-1.6h14.5v1.6c0,5.7,3.8,10.7,9.2,12.3c4,1.2,7.9,2.8,11.6,4.8
	c5,2.7,11.2,1.8,15.2-2.2l1.1-1.1l10.2,10.2l-1.1,1.1c-4,4-4.9,10.3-2.2,15.2c2,3.7,3.6,7.6,4.8,11.6c1.6,5.4,6.6,9.2,12.3,9.2h1.6
	V414.8z"/>
</svg>
